# xmcd
#
# Track frame offsets:
# 150
# 19871
# 33001
# 49031
# 63757
# 78988
# 91515
# 111164
# 127758
# 147019
#
# Disc length: 2176 seconds
#
#
# Revision: 0
# Processed by: cddbd v1.5PL3 Copyright (c) Steve Scherf et al.
# Submitted via: FreeRIP 2.52 
#
DISCID=69087e0a
DTITLE=Ron Bernard - It's My Desire
DYEAR=2003
DGENRE=Gospel
TTITLE0=Gone
TTITLE1=This world is not my own
TTITLE2=When He was on the cross
TTITLE3=Precious Lord, take my hand
TTITLE4=Just a little talk with Jesus
TTITLE5=Because he lives
TTITLE6=It's my desire
TTITLE7=This is just what heaven means to me
TTITLE8=There is a river
TTITLE9=My god is real
EXTD=
EXTT0=
EXTT1=
EXTT2=
EXTT3=
EXTT4=
EXTT5=
EXTT6=
EXTT7=
EXTT8=
EXTT9=
PLAYORDER=
